<svg id="Layer_1" data-name="Layer 1" xmlns="http://www.w3.org/2000/svg" xmlns:xlink="http://www.w3.org/1999/xlink" viewBox="0 0 306.65 80.34"><defs><style>.cls-1{fill:none;}.cls-2{font-size:70px;font-family:iCielPanton-Black, iCiel Panton;font-weight:800;}.cls-3{clip-path:url(#clip-path);}.cls-4{fill:#231f20;}.cls-5{clip-path:url(#clip-path-2);}.cls-6{fill:#fff775;}.cls-7{fill:#ecc680;}</style><clipPath id="clip-path" transform="translate(-6.06 -14.86)"><rect class="cls-1" x="6.03" y="14.86" width="95.05" height="71.86"/></clipPath><clipPath id="clip-path-2" transform="translate(-6.06 -14.86)"><rect class="cls-1" x="38.42" y="22.97" width="30.2" height="30.39"/></clipPath></defs><text class="cls-2" transform="translate(116.18 62.14)">THMT</text><g class="cls-3"><path class="cls-4" d="M90.09,75.53l-1.61-2h3.63l1.77,2Zm-4.63,0-1.41-2h3.62l1.57,2Zm-4.64,0-1.21-2h3.62l1.38,2Zm-4.63,0-1-2h3.62l1.18,2Zm-32.94,0,.37-2H74.35l1,2Zm-5.13,8.2,2.08-6.56H67.65l2.41,6.56Zm.21-10.16h4.36l-.42,2H37.72Zm-5.12-.39.84-2h4.12l-.64,2Zm3.54,2.35H32.2l.84-2H37.4Zm-5.38,0h-5l.49-.9h4.95Zm-5.65-1.2H20.81l.62-.89h4.81Zm-.7,1.2H20l.62-.9h4.94Zm-6.35,0h-5l.74-.9h5Zm-1.43-4.33H28.33l-1.11,2H15.62Zm2.2-2.65.65-.78,1-1.18h5.27l-1.35,2H22.42l-1.71,2.27H17.56Zm3.49-4.2h6.4l-1.27,2H21.3Zm4.68-1.19-.65.9H23.38l.74-.9ZM22.75,18.77H85.93V58.68H22.75ZM85.57,66.33H81.93l-1.58-2H83.8Zm2,2.24H82.05l-1.5-2h5.27Zm2,2.27h-8.7l-1.36-2h8.29Zm-10.5.38h4.13l1.46,2H80.41Zm-5,0h4.13l1.22,2H75.16Zm-.88,0,1,2H69.92l-.8-2ZM66,70.84l-.65-2h3.89l.85,2Zm2.2.38.75,2H64.67l-.56-2Zm-7.16-.38-.42-2h3.89l.62,2Zm2.15.38.52,2H59.43l-.33-2Zm-7.11-.38-.19-2h3.89l.39,2Zm2.1.38.28,2H54.19l-.1-2Zm-7.07-.38.05-2h3.89l.15,2Zm-2.07.38h4.13l0,2H48.94Zm-2.89-.38.28-2h3.89l-.08,2Zm-2.12.38H48.2l-.18,2H43.7Zm-2.84-.38.51-2h3.89l-.32,2Zm-2.17.38h4.13l-.42,2H38.45ZM37,68.88H40.9l-.55,2H36.26Zm-1.82-.31.84-2h3.68l-.65,2Zm-3.9,2.27,1-2h3.89l-.79,2Zm1.88.38-.89,2H28l1.08-2Zm-5.63-2.34h3.9l-1,2H26.33Zm-.66,0-1.25,2H21.54l1.44-2Zm4.06-2.27-1.11,2H26l1.3-2Zm4.73-2.53H32.08l.52-.9h3.49Zm-.42,2.53-.89,2H30.5l1.07-2Zm2.44-2.24-.81,2H33.24l1-2ZM40,64.08H36.43l.41-.9h3.49Zm1.86.29-.57,2H37.66l.76-2Zm2.49-.29H40.78l.3-.9h3.49Zm-.2,2.53-.42,2H39.88l.61-2Zm1.9-2.24-.34,2H42.09l.53-2Zm2.65-.29H45.14l.18-.9h3.49Zm-.1,2.53-.18,2H44.58l.37-2Zm1.64-2.24-.1,2H46.51l.3-2Zm-.77-.29.07-.9h3.49l0,.9Zm3.65,4.49H49.27l.14-2h3.68Zm1.32-4.2.13,2H50.94l.06-2Zm-.62-.29,0-.9h3.49l.14.9Zm4,4.49H54l-.09-2h3.67Zm.82-4.2.36,2H55.37l-.18-2Zm-.46-.29-.15-.9h3.49l.25.9Zm4.34,4.49H58.66l-.33-2H62Zm.31-4.2.6,2H59.79l-.4-2Zm-.29-.29-.27-.9h3.49l.36.9Zm4.67,4.49H63.35l-.56-2h3.67ZM67,64.37l.84,2H64.22l-.64-2Zm-.13-.29-.38-.9H70l.48.9Zm4.33.29,1.06,2H68.65l-.88-2Zm0-.29-.49-.9h3.49l.59.9Zm4.17.29,1.3,2H73.07l-1.1-2Zm.18-.29-.6-.9h3.49l.7.9Zm1.83,4.49-1.26-2h3.67l1.46,2Zm-2.58.31h3.89l1.32,2H76Zm-.84,0,1.09,2H71l-.89-2Zm-2.3-2.27h3.67l1.23,2H72.74Zm.2,2H68l-.79-2h3.67Zm7.33-5.39h3.49l.81.9H80Zm.37,1.19,1.54,2H77.5l-1.34-2Zm-51.88-.29.63-.9h3.49l-.54.9Zm5.91.29-1,2H29l1.22-2Zm58.12,8.81h-6.2l-1.49-2H90Zm9,7.75L84.07,62.59H86.6a3,3,0,0,0,3-3V17.86a3,3,0,0,0-3-3H22.08a3,3,0,0,0-3,3V59.59a3,3,0,0,0,3,3L6.22,82a1.36,1.36,0,0,0-.15.79c-.11,1.52.6,4,3,4H99c2,0,2.14-5.27,1.69-5.79" transform="translate(-6.06 -14.86)"/></g><g class="cls-5"><path class="cls-6" d="M58.71,46.34a11.4,11.4,0,0,1-.84-22.76,15.2,15.2,0,1,0,10.71,17,11.45,11.45,0,0,1-9.87,5.81" transform="translate(-6.06 -14.86)"/></g><path class="cls-7" d="M42.39,33.42a.83.83,0,0,1-1.66,0,.83.83,0,1,1,1.66,0" transform="translate(-6.06 -14.86)"/><path class="cls-7" d="M43.88,30.57a.83.83,0,1,1-1.66,0,.83.83,0,1,1,1.66,0" transform="translate(-6.06 -14.86)"/><path class="cls-7" d="M45.54,35.16a.83.83,0,1,1-.83-.83.83.83,0,0,1,.83.83" transform="translate(-6.06 -14.86)"/></svg>