<svg id="Layer_1" data-name="Layer 1" xmlns="http://www.w3.org/2000/svg" xmlns:xlink="http://www.w3.org/1999/xlink" viewBox="0 0 372.27 282.01"><defs><style>.cls-1{fill:none;}.cls-2{clip-path:url(#clip-path);}.cls-3{fill:#231f20;}.cls-4{clip-path:url(#clip-path-2);}.cls-5{fill:#fff775;}.cls-6{fill:#ecc680;}</style><clipPath id="clip-path" transform="translate(-1.12 -46.64)"><rect class="cls-1" x="1" y="46.64" width="373" height="282"/></clipPath><clipPath id="clip-path-2" transform="translate(-1.12 -46.64)"><rect class="cls-1" x="128.11" y="78.47" width="118.5" height="119.25"/></clipPath></defs><g class="cls-2"><path class="cls-3" d="M330.9,284.72,324.58,277H338.8l6.94,7.69Zm-18.2,0L307.16,277h14.22l6.17,7.69Zm-18.18,0L289.75,277H304l5.41,7.69Zm-18.19,0-4-7.69h14.22l4.63,7.69Zm-129.28,0,1.47-7.69H269.13l3.86,7.69Zm-20.11,32.2,8.14-25.76H242.81l9.47,25.76Zm.82-39.89h17.1l-1.63,7.69H125.37Zm-20.11-1.52,3.31-7.69h16.18l-2.54,7.69Zm13.9,9.21H103.69L107,277h17.1Zm-21.11.08H80.65l1.95-3.51H102Zm-22.17-4.7H59l2.43-3.51H80.32Zm-2.75,4.7H55.73l2.43-3.51H77.57Zm-24.91,0H30.82l2.91-3.51H53.14Zm-5.62-17H88.52l-4.36,7.69H38.61Zm8.64-10.41,2.55-3.07L60,249.72H80.69l-5.3,7.69H65.33l-6.71,8.89H46.26Zm13.69-16.48H92.45l-5,7.69H60.93Zm18.36-4.65-2.55,3.52H69.07L72,236.28ZM66.62,62H314.55V218.61H66.62ZM313.15,248.62H298.84l-6.19-7.69h13.56Zm7.94,8.79H299.33l-5.87-7.69h20.68Zm8,8.89H295l-5.33-7.69h32.54Zm-41.2,1.52h16.19l5.72,7.69H292.88Zm-19.67,0h16.2l4.8,7.69h-17Zm-3.46,0,3.87,7.69h-17l-3.11-7.69Zm-28.27-1.52-2.58-7.69h15.28l3.34,7.69Zm8.6,1.52,3,7.69h-17l-2.2-7.69ZM217,266.3l-1.67-7.69h15.29l2.42,7.69Zm8.42,1.52,2,7.69H210.56l-1.29-7.69Zm-27.9-1.52-.74-7.69H212.1l1.5,7.69Zm8.24,1.52,1.12,7.69H190l-.37-7.69Zm-27.73-1.52.18-7.69h15.29l.58,7.69Zm-8.13,1.52h16.2l.2,7.69h-17ZM158.6,266.3l1.08-7.69H175l-.33,7.69Zm-8.32,1.52h16.2l-.71,7.69h-17Zm-11.16-1.52,2-7.69h15.29l-1.26,7.69Zm-8.5,1.52h16.2l-1.63,7.69h-17Zm-8.06-9.21h15.29l-2.17,7.69H119.62Zm-7.12-1.2,3.3-7.69h14.41l-2.55,7.69Zm-15.3,8.89,3.86-7.69h15.29l-3.09,7.69Zm7.35,1.52L104,275.51h-17l4.23-7.69Zm-22.06-9.21h15.3l-4,7.69h-16Zm-2.62,0-4.89,7.69h-16l5.65-7.69Zm16-8.89-4.35,7.69H79.24l5.11-7.69Zm18.54-9.92H103.23l2-3.52H119Zm-1.65,9.92-3.47,7.69H97l4.22-7.69Zm9.58-8.79-3.16,7.69H107.76l3.92-7.69Zm9.14-1.13H120.31l1.59-3.52h13.7Zm7.32,1.13-2.25,7.69h-14.3l3-7.69Zm9.76-1.13H137.39l1.15-3.52h13.69Zm-.79,9.92L149,257.41H133.85l2.39-7.69Zm7.47-8.79-1.32,7.69H142.5l2.08-7.69Zm10.41-1.13H154.47l.7-3.52h13.71Zm-.39,9.92-.71,7.69H152.27l1.48-7.69Zm6.44-8.79-.41,7.69h-14.3l1.16-7.69Zm-3-1.13.26-3.52h13.71l.1,3.52Zm14.31,17.61H170.7l.54-7.69h14.42ZM191,240.93l.51,7.69h-14.3l.23-7.69Zm-2.4-1.13-.19-3.52h13.71l.54,3.52Zm15.64,17.61H189.11l-.36-7.69h14.41Zm3.21-16.48,1.43,7.69h-14.3l-.68-7.69Zm-1.78-1.13-.61-3.52h13.69l1,3.52Zm17,17.61H207.53l-1.28-7.69h14.41ZM224,240.93l2.35,7.69H212l-1.6-7.69Zm-1.16-1.13-1-3.52h13.7l1.42,3.52Zm18.33,17.61H226l-2.2-7.69h14.41Zm-.73-16.48,3.27,7.69h-14.3l-2.52-7.69Zm-.51-1.13-1.5-3.52h13.71L254,239.8Zm17,1.13,4.19,7.69H246.73l-3.43-7.69Zm.1-1.13L255,236.28h13.7l2.3,3.52Zm16.35,1.13,5.11,7.69H264.1l-4.35-7.69Zm.74-1.13-2.39-3.52h13.71l2.74,3.52Zm7.17,17.61-5-7.69h14.42l5.72,7.69Zm-10.14,1.2h15.28l5.18,7.69h-16Zm-3.28,0L272,266.3H256l-3.5-7.69Zm-9-8.89h14.41l4.8,7.69H262.79Zm.79,7.69H244.37l-3.12-7.69h14.42Zm28.75-21.13H302l3.19,3.52H291.11Zm1.47,4.65,6,7.69h-14.3l-5.28-7.69ZM86.15,239.8l2.46-3.52h13.71l-2.11,3.52Zm23.21,1.13-4,7.69H91l4.79-7.69Zm228.07,34.58H313.11l-5.86-7.69h23.23Zm35.17,30.42-65.33-72h9.93A11.8,11.8,0,0,0,329,222.16V58.42A11.79,11.79,0,0,0,317.2,46.64H64A11.78,11.78,0,0,0,52.2,58.42V222.16A11.79,11.79,0,0,0,64,234L1.74,310a5.4,5.4,0,0,0-.58,3.11c-.44,6,2.35,15.56,11.74,15.56H366c7.65,0,8.37-20.69,6.63-22.72" transform="translate(-1.12 -46.64)"/></g><g class="cls-4"><path class="cls-5" d="M207.74,170.19c-24.33,0-44.63-20.35-44.63-44.74,0-23.27,18.49-42.85,41.31-44.6a59.66,59.66,0,1,0,42.06,66.52,45,45,0,0,1-38.74,22.82" transform="translate(-1.12 -46.64)"/></g><path class="cls-6" d="M143.68,119.46a3.26,3.26,0,1,1-3.26-3.26,3.27,3.27,0,0,1,3.26,3.26" transform="translate(-1.12 -46.64)"/><path class="cls-6" d="M149.54,108.27a3.26,3.26,0,1,1-3.26-3.26,3.26,3.26,0,0,1,3.26,3.26" transform="translate(-1.12 -46.64)"/><path class="cls-6" d="M156.05,126.29A3.26,3.26,0,1,1,152.8,123a3.25,3.25,0,0,1,3.25,3.25" transform="translate(-1.12 -46.64)"/></svg>