<svg id="Layer_1" data-name="Layer 1" xmlns="http://www.w3.org/2000/svg" xmlns:xlink="http://www.w3.org/1999/xlink" viewBox="0 0 308.41 80.72"><defs><style>.cls-1{fill:none;}.cls-2{fill:#231f20;}.cls-3{font-size:70px;font-family:iCielPanton-Black, iCiel Panton;font-weight:800;}.cls-3,.cls-5{fill:#fff;}.cls-4{clip-path:url(#clip-path);}.cls-6{clip-path:url(#clip-path-2);}.cls-7{fill:#fff775;}.cls-8{fill:#ecc680;}</style><clipPath id="clip-path" transform="translate(-5.61 -14.47)"><rect class="cls-1" x="5.58" y="14.48" width="96.07" height="72.63"/></clipPath><clipPath id="clip-path-2" transform="translate(-5.61 -14.47)"><rect class="cls-1" x="38.35" y="23.84" width="30.52" height="30.71"/></clipPath></defs><polygon class="cls-2" points="16.87 48.05 5.27 63.74 33.47 71.32 66.62 71.32 89.67 61.77 78.14 48.05 16.87 48.05"/><g id="Layer_3" data-name="Layer 3"><rect class="cls-2" x="16.87" y="3.95" width="63.85" height="40.34"/></g><text class="cls-3" transform="translate(117.95 62.52)">THMT</text><g class="cls-4"><path class="cls-5" d="M90.55,75.79l-1.63-2h3.66l1.79,2Zm-4.69,0-1.43-2H88.1l1.59,2Zm-4.68,0-1.23-2h3.66l1.39,2Zm-4.69,0-1-2h3.66l1.2,2Zm-33.29,0,.38-2H74.64l1,2ZM38,84.09l2.09-6.64H67.86l2.44,6.64Zm.21-10.28h4.4l-.42,2h-4.6Zm-5.18-.39.85-2h4.17l-.66,2Zm3.58,2.37H32l.85-2h4.4Zm-5.44,0H26.1l.5-.9h5ZM25.48,74.6h-5l.63-.9H26Zm-.71,1.21H19.68l.62-.9h5Zm-6.41,0h-5.1l.75-.9h5Zm-1.45-4.37H28.12l-1.12,2H15.27Zm2.23-2.68.65-.79,1-1.19h5.33l-1.37,2H22.15l-1.73,2.29H17.24Zm3.52-4.24h6.47l-1.28,2H21Zm4.73-1.2-.66.9H23.11l.75-.9ZM22.48,18.43H86.34V58.77H22.48ZM86,66.5H82.29l-1.59-2h3.49Zm2,2.26h-5.6l-1.52-2h5.33Zm2.07,2.29h-8.8l-1.37-2H88.3Zm-10.61.39h4.17l1.47,2H80.75Zm-5.07,0h4.17l1.24,2H75.45Zm-.89,0,1,2H70.15l-.8-2Zm-7.28-.39-.67-2h3.94l.86,2Zm2.21.39.77,2H64.85l-.56-2Zm-7.23-.39-.43-2h3.94l.62,2Zm2.17.39.53,2H59.55l-.33-2Zm-7.18-.39-.2-2H60l.39,2Zm2.12.39.29,2H54.25l-.09-2Zm-7.14-.39,0-2h3.94l.15,2Zm-2.1.39h4.17l.06,2H49Zm-2.92-.39.28-2h3.94l-.09,2ZM44,71.44H48.2l-.18,2H43.65Zm-2.88-.39.52-2h3.94l-.33,2ZM39,71.44h4.17l-.42,2H38.35Zm-2.08-2.37h3.94l-.56,2H36.13Zm-1.84-.31.86-2h3.71l-.66,2Zm-3.93,2.29,1-2h3.94l-.8,2Zm1.89.39-.89,2H27.75l1.09-2Zm-5.68-2.37h3.94l-1,2H26.1Zm-.68,0-1.26,2H21.26l1.46-2Zm4.11-2.29-1.12,2H25.73l1.32-2Zm4.77-2.56H31.91l.52-.9H36Zm-.42,2.56-.89,2H30.31l1.09-2Zm2.47-2.26-.82,2H33.08l1-2Zm2.35-.3H36.31l.41-.9h3.53Zm1.89.3-.58,2H37.55l.77-2Zm2.51-.3H40.71l.29-.9h3.53Zm-.2,2.56-.43,2H39.8l.61-2Zm1.92-2.26-.34,2H42l.53-2Zm2.68-.3H45.11l.18-.9h3.53Zm-.1,2.56-.18,2H44.54l.38-2Zm1.66-2.26-.11,2H46.5l.3-2Zm-.78-.3.06-.9h3.54l0,.9Zm3.68,4.54h-3.9l.14-2h3.71Zm1.34-4.24.13,2H51l.06-2Zm-.62-.3,0-.9h3.53l.14.9Zm4,4.54H54l-.09-2h3.71Zm.82-4.24.37,2H55.45l-.18-2Zm-.46-.3-.15-.9h3.52l.26.9Zm4.38,4.54H58.77l-.33-2h3.71ZM63,64.52l.61,2H59.92l-.41-2Zm-.3-.3-.27-.9H66l.37.9Zm4.72,4.54h-3.9l-.57-2h3.71Zm-.18-4.24.84,2H64.4l-.65-2Zm-.14-.3-.38-.9h3.53l.48.9Zm4.38.3,1.07,2H68.87l-.88-2Zm0-.3-.5-.9h3.53l.6.9Zm4.21.3,1.32,2H73.34l-1.12-2Zm.19-.3-.61-.9h3.53l.7.9Zm1.85,4.54-1.28-2h3.72l1.47,2Zm-2.61.31h3.93l1.34,2H76.27Zm-.85,0,1.1,2H71.26l-.9-2ZM72,66.78h3.72l1.23,2H73Zm.21,2H68.26l-.8-2h3.71Zm7.4-5.44H83.1l.83.9H80.3Zm.38,1.2,1.55,2H77.82l-1.36-2Zm-52.44-.3.64-.9h3.53l-.55.9Zm6,.3-1,2H28.76l1.24-2Zm58.74,8.9H86l-1.51-2h6Zm9.06,7.83L84.46,62.72H87a3,3,0,0,0,3-3V17.51a3,3,0,0,0-3-3H21.8a3,3,0,0,0-3,3V59.68a3,3,0,0,0,3,3L5.77,82.3a1.39,1.39,0,0,0-.15.8c-.11,1.54.61,4,3,4H99.58c2,0,2.16-5.33,1.71-5.86" transform="translate(-5.61 -14.47)"/></g><g class="cls-6"><path class="cls-7" d="M58.86,47.47a11.52,11.52,0,0,1-.85-23A15.36,15.36,0,1,0,68.84,41.59a11.59,11.59,0,0,1-10,5.88" transform="translate(-5.61 -14.47)"/></g><path class="cls-8" d="M42.36,34.4a.84.84,0,1,1-.84-.84.84.84,0,0,1,.84.84" transform="translate(-5.61 -14.47)"/><path class="cls-8" d="M43.87,31.52a.84.84,0,1,1-1.67,0,.84.84,0,1,1,1.67,0" transform="translate(-5.61 -14.47)"/><path class="cls-8" d="M45.55,36.16a.84.84,0,0,1-1.68,0,.84.84,0,0,1,1.68,0" transform="translate(-5.61 -14.47)"/></svg>