<svg id="Layer_1" data-name="Layer 1" xmlns="http://www.w3.org/2000/svg" xmlns:xlink="http://www.w3.org/1999/xlink" viewBox="0 0 307.13 80.72"><defs><style>.cls-1,.cls-2{fill:#fff;}.cls-2{font-size:70px;font-family:iCielPanton-Black, iCiel Panton;font-weight:800;}.cls-3{clip-path:url(#clip-path);}.cls-4{clip-path:url(#clip-path-2);}</style><clipPath id="clip-path" transform="translate(-6.02 -17.75)"><rect class="cls-1" x="6.02" y="17.75" width="96.07" height="72.63"/></clipPath><clipPath id="clip-path-2" transform="translate(-6.02 -17.75)"><rect class="cls-1" x="38.8" y="27.12" width="30.52" height="30.71"/></clipPath></defs><text class="cls-2" transform="translate(116.66 62.52)">THMT</text><rect class="cls-1" width="96.07" height="72.63"/><g class="cls-3"><path class="cls-1" d="M91,79.07l-1.63-2H93l1.79,2Zm-4.69,0-1.42-2h3.66l1.59,2Zm-4.68,0-1.23-2h3.66l1.4,2Zm-4.69,0-1-2h3.67l1.19,2Zm-33.29,0,.38-2H75.08l1,2Zm-5.18,8.29,2.1-6.63H68.3l2.44,6.63Zm.21-10.27h4.4l-.41,2h-4.6Zm-5.18-.39.85-2h4.17l-.65,2Zm3.58,2.37h-4.6l.85-2h4.41Zm-5.43,0h-5.1l.5-.9h5Zm-5.71-1.21H21l.63-.9h4.86Zm-.71,1.21h-5.1l.63-.9h5Zm-6.42,0H13.7l.75-.9h5Zm-1.45-4.37H28.57l-1.13,2H15.71ZM19.58,72l.66-.79,1-1.2h5.32l-1.37,2H22.59l-1.73,2.29H17.68Zm3.52-4.25h6.48l-1.29,2H21.46Zm4.73-1.2-.65.91H23.56l.74-.91ZM22.93,21.7H86.78V62H22.93ZM86.42,69.77H82.73l-1.59-2h3.49Zm2,2.27h-5.6l-1.51-2h5.32Zm2.07,2.29h-8.8l-1.37-2h8.38Zm-10.61.39h4.17l1.47,2H81.2Zm-5.06,0H79l1.23,2H75.9Zm-.9,0,1,2H70.6l-.81-2Zm-7.28-.39-.66-2H70l.86,2Zm2.22.39.76,2H65.3l-.57-2Zm-7.24-.39-.42-2h3.93l.63,2Zm2.17.39.53,2H60l-.34-2Zm-7.18-.39-.19-2h3.93l.39,2Zm2.12.39.29,2H54.69l-.09-2Zm-7.14-.39,0-2h3.94l.15,2Zm-2.1.39h4.18l0,2H49.39Zm-2.92-.39.28-2h3.94l-.09,2Zm-2.14.39h4.17l-.18,2H44.09Zm-2.87-.39.51-2h3.94l-.32,2Zm-2.19.39h4.17l-.42,2H38.79Zm-2.08-2.37h3.94l-.56,2H36.58ZM35.5,72l.85-2h3.71l-.66,2Zm-3.94,2.29,1-2h3.94l-.8,2Zm1.89.39-.89,2H28.19l1.09-2Zm-5.68-2.37h3.94l-1,2H26.54Zm-.68,0-1.26,2H21.7l1.46-2Zm4.11-2.3-1.12,2H26.17l1.32-2ZM36,67.5H32.35l.52-.91H36.4Zm-.43,2.55-.89,2H30.75l1.09-2ZM38,67.79l-.81,2H33.52l1-2Zm2.35-.29H36.75l.41-.91h3.53Zm1.89.29-.58,2H38l.76-2Zm2.51-.29H41.15l.3-.91H45Zm-.2,2.55-.42,2H40.24l.62-2Zm1.92-2.26-.34,2H42.47l.53-2Zm2.68-.29H45.55l.18-.91h3.53Zm-.1,2.55-.18,2H45l.38-2Zm1.66-2.26-.1,2H46.94l.3-2ZM50,67.5l.07-.91h3.53l0,.91ZM53.63,72h-3.9l.14-2h3.71ZM55,67.79l.13,2H51.42l.06-2Zm-.62-.29-.05-.91h3.53l.14.91Zm4,4.54H54.47l-.09-2h3.71Zm.83-4.25.36,2H55.89l-.17-2Zm-.46-.29-.16-.91h3.53l.25.91ZM63.12,72h-3.9l-.33-2H62.6Zm.32-4.25.61,2H60.36l-.41-2Zm-.29-.29-.27-.91H66.4l.37.91ZM67.87,72H64l-.57-2h3.72Zm-.19-4.25.84,2H64.84l-.65-2Zm-.13-.29-.39-.91h3.53l.48.91Zm4.37.29,1.08,2H69.31l-.88-2Zm0-.29-.49-.91H75l.59.91Zm4.22.29,1.31,2H73.79l-1.12-2Zm.18-.29-.61-.91h3.53l.71.91ZM78.19,72l-1.27-2h3.71l1.47,2Zm-2.61.31h3.94l1.33,2H76.72Zm-.84,0,1.09,2H71.7l-.9-2Zm-2.33-2.3h3.71l1.24,2H73.45Zm.2,2H68.7l-.8-2h3.71ZM80,66.59h3.53l.82.91H80.74Zm.37,1.2,1.55,2H78.26l-1.36-2ZM28,67.5l.64-.91h3.53l-.54.91Zm6,.29-1,2H29.21l1.23-2ZM92.67,76.7H86.41l-1.51-2h6Zm9.06,7.83L84.9,66h2.56a3,3,0,0,0,3-3V20.79a3,3,0,0,0-3-3H22.24a3,3,0,0,0-3,3V63a3,3,0,0,0,3,3l-16,19.58a1.38,1.38,0,0,0-.14.8c-.12,1.54.6,4,3,4H100c2,0,2.16-5.33,1.71-5.85" transform="translate(-6.02 -17.75)"/></g><rect class="cls-1" x="32.77" y="9.37" width="30.52" height="30.71"/><g class="cls-4"><path class="cls-1" d="M59.3,50.74a11.52,11.52,0,0,1-.85-23A15.37,15.37,0,1,0,69.28,44.87a11.58,11.58,0,0,1-10,5.87" transform="translate(-6.02 -17.75)"/></g></svg>